<svg xmlns="http://www.w3.org/2000/svg" xmlns:xlink="http://www.w3.org/1999/xlink" width="500" zoomAndPan="magnify" viewBox="0 0 375 374.999991" height="500" preserveAspectRatio="xMidYMid meet" version="1.0"><defs><g/></defs><g fill="#000000" fill-opacity="1"><g transform="translate(63.133094, 281.989845)"><g><path d="M 13.140625 0 L 51.933594 0 L 51.933594 -164.867188 L 13.140625 -164.867188 Z M 98.859375 -0.3125 C 98.859375 -0.3125 162.054688 -20.335938 162.054688 -81.652344 C 162.054688 -142.65625 98.859375 -164.867188 98.859375 -164.867188 C 98.859375 -164.867188 118.566406 -156.109375 118.566406 -82.589844 C 118.566406 -9.074219 98.859375 -0.3125 98.859375 -0.3125 Z M 98.859375 -0.3125 "/></g></g></g><g fill="#000000" fill-opacity="1"><g transform="translate(200.468056, 281.989845)"><g><path d="M 40.355469 1.878906 C 78.835938 10.949219 100.109375 -10.949219 100.109375 -34.101562 L 100.109375 -164.867188 L 61.628906 -164.867188 L 61.628906 -21.585938 C 61.628906 -1.5625 40.355469 1.878906 40.355469 1.878906 Z M 30.347656 -5.316406 C 40.984375 -5.316406 49.429688 -13.765625 49.429688 -24.402344 C 49.429688 -34.726562 40.984375 -43.484375 30.347656 -43.484375 C 20.023438 -43.484375 11.574219 -34.726562 11.574219 -24.402344 C 11.574219 -13.765625 20.023438 -5.316406 30.347656 -5.316406 Z M 30.347656 -5.316406 "/></g></g></g></svg>